:version 1.10
:name ASF
:units
  mass 1
  length 1
  angle deg
:documentation
  ASF file generated by Kaydara
:root
  axis xyz
  order  tx ty tz rx ry rz
  position 0 0 0
  orientation 0 0 0
:bonedata
  begin
    id 1
    name lfemurDummy
    direction 0.61522 -0.761478 0.204097
    length 5.68318
    axis 0 -0 0 xyz
  end
  begin
    id 2
    name lfemur
    direction 0.34202 -0.939693 -5.84747e-008
    length 16.9147
    axis 0 -0 20 xyz
    dof rx ry rz
    limits( -inf , inf )
( -inf , inf )
( -inf , inf )

  end
  begin
    id 3
    name ltibia
    direction 0.34202 -0.939693 1.20839e-009
    length 18.0532
    axis 0 -0 20 xyz
    dof rz ry rx
    limits( -inf , inf )
( -inf , inf )
( -inf , inf )

  end
  begin
    id 4
    name lfoot
    direction 0.0841971 -0.23133 0.969225
    length 5.23822
    axis -90 7.62852e-016 20 xyz
    dof ry rx rz
    limits( -inf , inf )
( -inf , inf )
( -inf , inf )

  end
  begin
    id 5
    name ltoes
    direction 0 0 0
    length 0
    axis 0 0 0 xyz
    dof rz ry rx
    limits( -inf , inf )
( -inf , inf )
( -inf , inf )

  end
  begin
    id 6
    name rfemurDummy
    direction -0.625247 -0.75382 0.202044
    length 5.74091
    axis 0 -0 0 xyz
  end
  begin
    id 7
    name rfemur
    direction -0.34202 -0.939693 -1.47013e-008
    length 16.4922
    axis 0 -0 -20 xyz
    dof rx ry rz
    limits( -inf , inf )
( -inf , inf )
( -inf , inf )

  end
  begin
    id 8
    name rtibia
    direction -0.34202 -0.939693 -7.74345e-010
    length 18.2421
    axis 0 -0 -20 xyz
    dof rz ry rx
    limits( -inf , inf )
( -inf , inf )
( -inf , inf )

  end
  begin
    id 9
    name rfoot
    direction -0.124331 -0.341598 0.931586
    length 5.45787
    axis -90 -7.62852e-016 -20 xyz
    dof ry rx rz
    limits( -inf , inf )
( -inf , inf )
( -inf , inf )

  end
  begin
    id 10
    name rtoes
    direction 0 0 0
    length 0
    axis 0 0 0 xyz
    dof rz ry rx
    limits( -inf , inf )
( -inf , inf )
( -inf , inf )

  end
  begin
    id 11
    name lowerbackDummy
    direction 0 0 0
    length 0
    axis 0 -0 0 xyz
  end
  begin
    id 12
    name lowerback
    direction -0.0218484 0.994884 -0.0986304
    length 4.45607
    axis 0 -0 0 xyz
    dof rx ry rz
    limits( -inf , inf )
( -inf , inf )
( -inf , inf )

  end
  begin
    id 13
    name upperback
    direction -0.00973057 0.999717 -0.0217111
    length 4.47449
    axis 0 -0 0 xyz
    dof rx ry rz
    limits( -inf , inf )
( -inf , inf )
( -inf , inf )

  end
  begin
    id 14
    name thorax
    direction -0.000928171 0.999699 0.0245198
    length 4.50973
    axis 0 -0 0 xyz
    dof rx ry rz
    limits( -inf , inf )
( -inf , inf )
( -inf , inf )

  end
  begin
    id 15
    name rclavicle
    direction -0.9009 0.425937 -0.0834055
    length 7.28587
    axis 0 -0 0 xyz
    dof rx ry rz
    limits( -inf , inf )
( -inf , inf )
( -inf , inf )

  end
  begin
    id 16
    name rhumerus
    direction -1 -2.23604e-007 -1.42637e-007
    length 13.5704
    axis 180 30 90 xyz
    dof rx ry rz
    limits( -inf , inf )
( -inf , inf )
( -inf , inf )

  end
  begin
    id 17
    name rradius
    direction -1 5.68281e-008 -4.4952e-007
    length 8.06782
    axis 180 30 90 xyz
    dof rz ry rx
    limits( -inf , inf )
( -inf , inf )
( -inf , inf )

  end
  begin
    id 18
    name rwrist
    direction -1 1.51393e-007 1.38143e-007
    length 4.03391
    axis -90 -90 0 xyz
    dof rz rx ry
    limits( -inf , inf )
( -inf , inf )
( -inf , inf )

  end
  begin
    id 19
    name rthumb
    direction 0 0 0
    length 0
    axis 0 0 0 xyz
    dof ry rx rz
    limits( -inf , inf )
( -inf , inf )
( -inf , inf )

  end
  begin
    id 20
    name rhand
    direction -1 -3.34077e-007 -5.59631e-007
    length 1.29744
    axis -90 -90 0 xyz
    dof ry rx rz
    limits( -inf , inf )
( -inf , inf )
( -inf , inf )

  end
  begin
    id 21
    name rfingers
    direction 0 0 0
    length 0
    axis 0 0 0 xyz
    dof rz ry rx
    limits( -inf , inf )
( -inf , inf )
( -inf , inf )

  end
  begin
    id 22
    name lclavicle
    direction 0.940017 0.332249 -0.0773232
    length 8.29589
    axis 0 -0 0 xyz
    dof rx ry rz
    limits( -inf , inf )
( -inf , inf )
( -inf , inf )

  end
  begin
    id 23
    name lhumerus
    direction 1 7.41158e-008 -1.44768e-008
    length 12.0042
    axis 180 -30 -90 xyz
    dof rx ry rz
    limits( -inf , inf )
( -inf , inf )
( -inf , inf )

  end
  begin
    id 24
    name lradius
    direction 1 -1.32972e-007 3.10821e-007
    length 8.1902
    axis 180 -30 -90 xyz
    dof rz ry rx
    limits( -inf , inf )
( -inf , inf )
( -inf , inf )

  end
  begin
    id 25
    name lwrist
    direction 1 3.08957e-007 4.01394e-007
    length 4.09509
    axis -90 90 0 xyz
    dof rz rx ry
    limits( -inf , inf )
( -inf , inf )
( -inf , inf )

  end
  begin
    id 26
    name lthumb
    direction 0 0 0
    length 0
    axis 0 0 0 xyz
    dof ry rx rz
    limits( -inf , inf )
( -inf , inf )
( -inf , inf )

  end
  begin
    id 27
    name lhand
    direction 1 -1.64125e-007 -6.99514e-007
    length 1.37229
    axis -90 90 0 xyz
    dof ry rx rz
    limits( -inf , inf )
( -inf , inf )
( -inf , inf )

  end
  begin
    id 28
    name lfingers
    direction 0 0 0
    length 0
    axis 0 0 0 xyz
    dof rz ry rx
    limits( -inf , inf )
( -inf , inf )
( -inf , inf )

  end
  begin
    id 29
    name lowerneck
    direction -0.030798 0.998024 0.0547665
    length 3.93918
    axis 0 -0 0 xyz
    dof rx ry rz
    limits( -inf , inf )
( -inf , inf )
( -inf , inf )

  end
  begin
    id 30
    name upperneck
    direction 0.0531588 0.996611 -0.0627736
    length 3.95491
    axis 0 -0 0 xyz
    dof rx ry rz
    limits( -inf , inf )
( -inf , inf )
( -inf , inf )

  end
  begin
    id 31
    name head
    direction 0 0 0
    length 0
    axis 0 0 0 xyz
    dof rx ry rz
    limits( -inf , inf )
( -inf , inf )
( -inf , inf )

  end
:hierarchy
  begin
    root lfemurDummy rfemurDummy lowerbackDummy
    lfemurDummy lfemur
    lfemur ltibia
    ltibia lfoot
    lfoot ltoes
    rfemurDummy rfemur
    rfemur rtibia
    rtibia rfoot
    rfoot rtoes
    lowerbackDummy lowerback
    lowerback upperback
    upperback thorax
    thorax rclavicle lclavicle lowerneck
    rclavicle rhumerus
    rhumerus rradius
    rradius rwrist
    rwrist rthumb rhand
    rhand rfingers
    lclavicle lhumerus
    lhumerus lradius
    lradius lwrist
    lwrist lthumb lhand
    lhand lfingers
    lowerneck upperneck
    upperneck head
  end

:SAMPLES-PER-SECOND 30
:FULLY-SPECIFIED
:DEGREES
37
root  -6.380066909 35.89888745 8.224444502 17.35498047 -59.56500244 -17.68200684
lowerback  11.08390045 4.831820011 -4.106579781
upperback  2.417959929 5.644659996 -3.675250053
thorax  -3.683320045 2.766580105 -2.329119921
lowerneck  -7.137269974 1.641309977 -12.79459953
upperneck  9.773329735 2.038120031 15.29909992
head  3.733429909 1.322319984 7.020450115
lclavicle  0 -9.442270133e-015 7.951389973e-016
lhumerus  33.59109879 -26.43810081 58.14899826
lradius  8.770807861e-032 -3.420463906e-031 104.3820038
lwrist  -7.062250077e-031 -0 0.08532209694
lhand  -1.496451383e-031 -27.76390076 20.11240005
lfingers  90 7.125020027 -90
lthumb  89.89689403 5.08795885 91.16245106
rclavicle  0 -9.442270133e-015 7.951389973e-016
rhumerus  -25.99720001 23.63829994 -78.29470062
rradius  -3.843982427e-032 3.510139887e-031 96.24960327
rwrist  7.062250077e-031 -5.296687558e-031 -12.80109978
rhand  -7.920061211e-032 -33.2840004 9.303460121
rfingers  -90 -7.125020027 -90
rthumb  -92.93752616 -24.25625642 -97.11982154
rfemur  11.88189983 7.999820232 21.84180069
rtibia  -0 0 46.34360123
rfoot  -4.568505083e-032 -14.94810009 -3.66031003
rtoes  5.373923086 19.29304026 -105.8922705
lfemur  -53.9538002 -0.9479190111 -0.9724159837
ltibia  -0 0 64.64320374
lfoot  -0 -4.39605999 -10.25010014
ltoes  -4.250644065 -19.5611806 -102.515957
38
root  -6.520155659 35.63800121 8.304888808 17.26501465 -58.87599945 -17.43103027
lowerback  11.10389996 5.338870049 -4.227700233
upperback  1.975929976 6.264830112 -3.992870092
thorax  -4.130459785 3.076689959 -2.716219902
lowerneck  -6.371399879 1.324669957 -13.07540035
upperneck  9.971879959 1.425780058 16.29260063
head  3.733760118 1.027109981 7.367899895
lclavicle  0 -9.442270133e-015 7.951389973e-016
lhumerus  30.9314003 -29.38629913 59.86180115
lradius  1.070525427e-031 -3.364939724e-031 107.6480026
lwrist  -3.531125038e-031 -0 -0.6986629963
lhand  -1.496451383e-031 -27.76390076 20.11240005
lfingers  90 7.125020027 -90
lthumb  89.89689403 5.08795885 91.16245106
rclavicle  0 -9.442270133e-015 7.951389973e-016
rhumerus  -21.30940056 21.77659988 -74.03759766
rradius  -4.242612379e-032 3.505545099e-031 96.90070343
rwrist  1.412450015e-030 -0 -13.69909954
rhand  -7.920061211e-032 -33.2840004 9.303460121
rfingers  -90 -7.125020027 -90
rthumb  -92.93752616 -24.25625642 -97.11982154
rfemur  12.13640022 7.021029949 22.1616993
rtibia  -0 0 46.85839844
rfoot  -4.56708449e-032 -14.88119984 -4.817039967
rtoes  5.373923086 19.29304026 -105.8922705
lfemur  -55.11660004 -1.750630021 -0.7807819843
ltibia  -0 0 66.1187973
lfoot  -0 -5.472229958 -8.735250473
ltoes  -4.250644065 -19.5611806 -102.515957
39
root  -6.672399626 35.43644402 8.349644668 17.65600586 -57.91400146 -17.73101807
lowerback  11.10840034 5.74492979 -4.020150185
upperback  1.669190049 6.800869942 -4.2490201
thorax  -4.39331007 3.339540005 -3.199280024
lowerneck  -5.820320129 0.9811059833 -13.0635004
upperneck  10.10219955 0.8032169938 16.98189926
head  3.765539885 0.7292870283 7.568699837
lclavicle  0 -9.442270133e-015 7.951389973e-016
lhumerus  28.23159981 -32.17559814 61.33589935
lradius  1.252313953e-031 -3.301598673e-031 110.7720032
lwrist  -7.062250077e-031 -3.531125038e-031 -0.7832400203
lhand  -1.496451383e-031 -27.76390076 20.11240005
lfingers  90 7.125020027 -90
lthumb  89.89689403 5.08795885 91.16245106
rclavicle  0 -9.442270133e-015 7.951389973e-016
rhumerus  -15.82269955 19.40110016 -69.91989899
rradius  -4.198128407e-032 3.506080606e-031 96.82800293
rwrist  7.062250077e-031 -0 -14.69979954
rhand  -7.920061211e-032 -33.2840004 9.303460121
rfingers  -90 -7.125020027 -90
rthumb  -92.93752616 -24.25625642 -97.11982154
rfemur  12.0607996 6.232880116 23.05060005
rtibia  -0 0 47.85549927
rfoot  -9.151486707e-032 -15.28390026 -6.872119904
rtoes  5.373923086 19.29304026 -105.8922705
lfemur  -56.35929871 -2.53392005 -0.05835640058
ltibia  -0 0 67.60009766
lfoot  -0 -5.714789867 -9.889300346
ltoes  -4.250644065 -19.5611806 -102.515957
40
root  -6.801644273 35.14977703 8.356911366 18.43499756 -56.69100189 -18.55401611
lowerback  11.02560043 6.021959782 -3.237590075
upperback  1.680259943 7.258580208 -4.478970051
thorax  -4.198790073 3.55685997 -3.919369936
lowerneck  -5.681809902 0.6008840203 -12.90939999
upperneck  9.959589958 0.2131859958 17.46489906
head  3.791389942 0.4583820105 7.676380157
lclavicle  0 -9.442270133e-015 7.951389973e-016
lhumerus  26.16500092 -34.48070145 62.11790085
lradius  1.418650842e-031 -3.233616215e-031 113.6880035
lwrist  -7.062250077e-031 -0 -0.5646939874
lhand  -1.496451383e-031 -27.76390076 20.11240005
lfingers  90 7.125020027 -90
lthumb  89.89689403 5.08795885 91.16245106
rclavicle  0 -9.442270133e-015 7.951389973e-016
rhumerus  -9.387330055 16.41819954 -65.96579742
rradius  -3.717754262e-032 3.511499262e-031 96.04360199
rwrist  1.412450015e-030 -0 -15.85610008
rhand  -7.920061211e-032 -33.2840004 9.303460121
rfingers  -90 -7.125020027 -90
rthumb  -92.93752616 -24.25625642 -97.11982154
rfemur  11.89869976 4.97262001 24.35280037
rtibia  -0 0 48.7901001
rfoot  -0 -16.17569923 -9.48361969
rtoes  5.373923086 19.29304026 -105.8922705
lfemur  -57.91260147 -3.162509918 1.101029992
ltibia  -0 0 69.19960022
lfoot  -0 -5.771289825 -11.34080029
ltoes  -4.250644065 -19.5611806 -102.515957
